<?xml version="1.0" encoding="utf-8"?>
<!-- Generator: Adobe Illustrator 24.0.0, SVG Export Plug-In . SVG Version: 6.00 Build 0)  -->
<svg version="1.1" id="Logo" xmlns="http://www.w3.org/2000/svg" xmlns:xlink="http://www.w3.org/1999/xlink" x="0px" y="0px"
	 viewBox="0 0 118.8 26.5" style="enable-background:new 0 0 118.8 26.5;" xml:space="preserve">
<style type="text/css">
	.st0{fill:#408938;}
</style>
<path class="st0" d="M3.5,26.5c-2,0-3.5-1.5-3.5-3.4V9.7c0-4.1,2.6-7.9,6.4-9.1s7.9,0,10.3,2.9c1.8,2.2,2.6,5,2.1,7.8
	c-0.5,3-2.6,5.6-5.4,6.9c-2.1,1-4.4,1.1-6.5,0.5V23C6.9,24.9,5.4,26.5,3.5,26.5L3.5,26.5z M9.5,2.1C8.7,2.1,7.8,2.3,7,2.5
	C4,3.4,2,6.4,2,9.7v13.4c0,0.8,0.6,1.4,1.4,1.4s1.4-0.7,1.4-1.5v-9.5v-0.1v-0.2l1.7-1.9L4.3,9.1C4,8.9,3.9,8.5,4,8.1
	s0.4-0.7,0.8-0.8l7.7-2.1c0.3,0,0.7,0.2,0.9,0.4c0.2,0.3,0.3,0.6,0.2,0.9L12,14.4c-0.1,0.5-0.5,0.9-1.1,0.9h-0.2l-0.5-0.2L8,12.8
	l-0.3,0.3L7,14c-0.1,0.1-0.1,0.3-0.1,0.4v2.2c1.8,0.6,3.8,0.6,5.7-0.2c2.2-1,3.9-3.1,4.3-5.4c0.4-2.2-0.2-4.5-1.6-6.2
	C13.8,3.1,11.7,2.1,9.5,2.1z M10,14L10,14L10,14z M5.7,7.7L5.7,7.7L5.7,7.7z"/>
<path class="st0" d="M20.4,19c-1.9,0-3.5-1.5-3.5-3.4v-6c0-5.2,4.3-9.5,9.5-9.5c1.9,0,3.5,1.5,3.5,3.4S28.4,7,26.4,7
	c-1.4,0-2.6,1.2-2.6,2.6v6C23.8,17.4,22.3,19,20.4,19z M26.4,2c-4.1,0-7.5,3.4-7.5,7.5v6c0,0.8,0.7,1.4,1.5,1.4s1.4-0.7,1.4-1.4v-6
	c0-2.5,2.1-4.6,4.6-4.6c0.8,0,1.5-0.7,1.5-1.5C27.9,2.7,27.2,2,26.4,2z"/>
<path class="st0" d="M35.5,19c-5.2,0-9.5-4.3-9.5-9.5S30.3,0,35.5,0S45,4.3,45,9.5S40.7,19,35.5,19z M35.5,2C31.4,2,28,5.4,28,9.5
	s3.4,7.5,7.5,7.5S43,13.6,43,9.5S39.6,2,35.5,2z M35.5,14.1c-2.5,0-4.6-2.1-4.6-4.6s2.1-4.6,4.6-4.6s4.6,2.1,4.6,4.6
	S38.1,14.1,35.5,14.1z M35.5,6.9c-1.4,0-2.6,1.2-2.6,2.6s1.2,2.6,2.6,2.6s2.6-1.2,2.6-2.6S37,6.9,35.5,6.9z"/>
<path class="st0" d="M64.5,19c-1.9,0-3.4-1.5-3.4-3.5V8c0-0.6-0.5-1.1-1.1-1.1S58.9,7.4,58.9,8v7.6c0,1.9-1.5,3.5-3.4,3.5
	S52,17.6,52,15.6V8c0-0.6-0.5-1.1-1.1-1.1S49.8,7.4,49.8,8v7.6c0,1.9-1.5,3.5-3.4,3.5S43,17.6,43,15.6V8c0-4.4,3.6-8,8-8
	c1.6,0,3.2,0.5,4.5,1.4C56.8,0.5,58.4,0,60,0c4.4,0,8,3.6,8,8v0.1c0,0.1,0,0.1,0,0.1v7.3C68,17.5,66.4,19,64.5,19z M60,4.9
	c1.7,0,3.1,1.4,3.1,3.1v7.6c0,0.8,0.6,1.5,1.4,1.5s1.5-0.7,1.5-1.5V8c0-3.3-2.7-6-6-6c-1.4,0-2.8,0.5-3.9,1.4L55.4,4l-0.7-0.6
	C53.6,2.5,52.3,2,50.8,2c-3.3,0-6,2.7-6,6v7.6c0,0.8,0.6,1.5,1.4,1.5c0.8,0,1.4-0.7,1.4-1.5V8c0-1.7,1.4-3.1,3.1-3.1
	C52.6,4.9,54,6.3,54,8v7.6c0,0.8,0.7,1.5,1.5,1.5s1.4-0.7,1.4-1.5V8C56.9,6.3,58.3,4.9,60,4.9z"/>
<path class="st0" d="M75.6,19L75.6,19c-5.3,0-9.6-4.3-9.6-9.5S70.3,0,75.5,0C80.1,0,85,3.3,85,9.5c0,1.5-1,2.9-2.5,3.3
	c0,0,0,0.1,0.1,0.1c0.8,1.6,0.2,3.4-1.4,4.5C78.8,19,76.7,19,75.6,19z M75.5,2C71.4,2,68,5.4,68,9.5s3.4,7.5,7.6,7.5h0.1
	c1,0,2.5,0,4.4-1.3c0.7-0.5,1-1.3,0.7-1.9c-0.3-0.7-1.3-1-1.9-0.7c-1.4,0.9-2.6,1-3.4,1c-1.3,0-2.5-0.6-3.4-1.5l-1.5-1.7h11
	c0.8,0,1.5-0.6,1.5-1.4C83,4.6,79.1,2,75.5,2z M80.5,8h-10l1.6-1.7c0.9-0.9,2.1-1.5,3.4-1.5l0,0c1.4,0,2.7,0.6,3.5,1.5L80.5,8z"/>
<path class="st0" d="M98.5,19c-1.9,0-3.4-1.5-3.4-3.5v-6c0-1.4-1.2-2.6-2.6-2.6S89.9,8,89.9,9.5v6c0,1.9-1.5,3.5-3.5,3.5
	c-1.9,0-3.4-1.5-3.4-3.5v-6C83,4.3,87.3,0,92.5,0s9.5,4.3,9.5,9.5v6C102,17.4,100.5,19,98.5,19z M92.5,4.9c2.5,0,4.6,2.1,4.6,4.6v6
	c0,0.8,0.6,1.5,1.4,1.5s1.5-0.6,1.5-1.5v-6c0-4.1-3.4-7.5-7.5-7.5S85,5.4,85,9.5v6c0,0.8,0.6,1.5,1.4,1.5s1.5-0.6,1.5-1.5v-6
	C87.9,6.9,89.9,4.9,92.5,4.9z"/>
<path class="st0" d="M115.4,18.9c-0.7,0-1.5-0.3-2.1-0.8c-1,0.4-2,0.7-3.2,0.8c-0.2,0-0.3,0-0.5,0c-4.8,0-8.7-3.2-9.5-7.7
	c-0.4-2.7,0.2-5.4,1.9-7.5c0.3-0.3,1.4-1.4,1.7-1.7c1.7-1.3,3.7-2,5.8-2h0.3c5,0.2,9,4.4,9,9.5v5.9
	C118.9,17.4,117.4,18.9,115.4,18.9z M113.8,15.6l0.5,0.7c0.3,0.4,0.7,0.6,1.1,0.6c0.8,0,1.5-0.6,1.5-1.5V9.6c0-4-3.2-7.4-7.1-7.5
	h-0.3c-1.7,0-3.2,0.5-4.6,1.5l3.2,3.2l2.2-2.3c0.2-0.2,0.5-0.3,0.8-0.3c0.5,0,1,0.3,1.1,0.8l2.1,7.3c0.1,0.4,0,0.7-0.2,1
	s-0.6,0.4-0.9,0.4c-0.1,0-0.1,0-8-1.6c-0.4-0.1-0.7-0.4-0.9-0.8c-0.1-0.4,0-0.8,0.3-1.1l2.1-2.1L103.5,5c-1.2,1.7-1.7,3.8-1.4,5.9
	c0.6,3.6,4,6.2,7.9,6c1.2-0.1,2.1-0.3,3-0.8L113.8,15.6z"/>
</svg>
