<?xml version="1.0" encoding="utf-8"?>
<!-- Generator: Adobe Illustrator 24.0.0, SVG Export Plug-In . SVG Version: 6.00 Build 0)  -->
<svg version="1.1" id="Icon" xmlns="http://www.w3.org/2000/svg" xmlns:xlink="http://www.w3.org/1999/xlink" x="0px" y="0px"
	 viewBox="0 0 16 16" style="enable-background:new 0 0 16 16;" xml:space="preserve">
<style type="text/css">
	.st0{fill:#408938;}
</style>
<path class="st0" d="M4.8,15.5c-1.1,0-2-0.9-2-1.9V6c0-2.4,1.5-4.5,3.7-5.2c2.2-0.7,4.5,0,5.9,1.7c1,1.2,1.5,2.9,1.2,4.4
	c-0.3,1.7-1.5,3.2-3.1,3.9c-1.2,0.5-2.5,0.6-3.7,0.3l0,2.4C6.7,14.6,5.9,15.5,4.8,15.5L4.8,15.5z M8.2,1.7c-0.5,0-0.9,0.1-1.4,0.2
	C5.1,2.4,4,4.1,4,6v7.6c0,0.4,0.4,0.8,0.8,0.8c0.5,0,0.8-0.4,0.8-0.9l0-5.4l0-0.1V8l1-1.1L5.3,5.7C5.1,5.5,5,5.3,5.1,5.1
	c0.1-0.2,0.2-0.4,0.4-0.4l4.4-1.2c0.2,0,0.4,0.1,0.5,0.2c0.1,0.1,0.2,0.3,0.1,0.5L9.6,8.7C9.6,9,9.3,9.2,9,9.2H8.9L8.7,9.1L7.4,7.8
	L7.2,7.9L6.8,8.4C6.8,8.5,6.7,8.6,6.7,8.7l0,1.3c1,0.3,2.2,0.3,3.2-0.1c1.3-0.6,2.2-1.8,2.4-3.1c0.2-1.3-0.1-2.5-0.9-3.5
	C10.7,2.2,9.5,1.7,8.2,1.7z M8.5,8.4C8.5,8.4,8.5,8.4,8.5,8.4L8.5,8.4z M6.1,4.8L6.1,4.8C6.1,4.9,6.1,4.9,6.1,4.8z"/>
</svg>
