<?xml version="1.0" encoding="utf-8"?>
<!-- Generator: Adobe Illustrator 24.0.0, SVG Export Plug-In . SVG Version: 6.00 Build 0)  -->
<svg version="1.1" id="Icon" xmlns="http://www.w3.org/2000/svg" xmlns:xlink="http://www.w3.org/1999/xlink" x="0px" y="0px"
	 viewBox="0 0 36 36" style="enable-background:new 0 0 36 36;" xml:space="preserve">
<style type="text/css">
	.st0{fill:#408938;}
</style>
<path class="st0" d="M10.4,35C8,35,6,33.1,6,30.6V13.3C6,8,9.4,3.2,14.3,1.6c4.9-1.5,10.1,0,13.3,3.8c2.3,2.8,3.3,6.5,2.6,10.1
	c-0.7,3.8-3.4,7.2-7,8.9c-2.7,1.2-5.6,1.4-8.4,0.6l0,5.5C14.9,33,12.9,35,10.4,35L10.4,35z M18.2,3.6c-1.1,0-2.1,0.2-3.2,0.5
	c-3.8,1.2-6.5,5-6.5,9.2v17.3c0,1,0.8,1.8,1.9,1.8c1,0,1.8-0.9,1.8-2l0-12.2l0-0.1v-0.3l2.2-2.4l-3-2.9c-0.4-0.3-0.5-0.9-0.4-1.4
	c0.1-0.5,0.5-0.9,1-1L22,7.5c0.4,0,0.9,0.2,1.1,0.5c0.3,0.3,0.4,0.8,0.3,1.2l-2,10.1c-0.1,0.7-0.7,1.1-1.4,1.1h-0.2l-0.6-0.2l-3-3
	l-0.4,0.4l-0.8,1.1c-0.1,0.2-0.2,0.4-0.2,0.5l0,2.9c2.3,0.8,4.9,0.8,7.3-0.3c2.9-1.3,5-4,5.5-7c0.5-2.9-0.2-5.8-2.1-8
	C23.8,4.9,21.1,3.6,18.2,3.6z M18.9,18.9C18.9,18.9,18.9,18.9,18.9,18.9L18.9,18.9z M13.3,10.8L13.3,10.8
	C13.4,10.8,13.3,10.8,13.3,10.8z"/>
</svg>
